<svg xmlns="http://www.w3.org/2000/svg" width="215" height="84.44"><path d="M15.58 68.06c-.9-3.31-1.36-5-2.28-8.24-2.88.35-4.31.55-7.18 1v8.54c-2.51.35-3.66.5-6.08.87q.09-23.22.47-46.5c3.23-.45 4.86-.67 8.08-1.15q6.73 22.26 12.99 44.65l-6.08.75m-10-37c.12 8 .3 16 .47 24l5.73-.75Q8.66 42.75 5.58 31.07m31.4 34.58q-5.4-16.45-11.06-32.81l4 33.49-5.83.62-5-45.67 7.16-.77q5.53 15.17 10.74 30.43-1.6-15.6-3.13-31.19c2.5-.25 3.77-.35 6.3-.55l3.68 45.85-6.91.6m29.38-6.23a5.62 5.62 0 0 1-6.15 4.51c-4 .22-8 .47-12 .77q-1.76-22.89-3.43-45.82c4.08-.33 8.16-.58 12.26-.83a8.93 8.93 0 0 1 5.67 1.08 6.64 6.64 0 0 1 2.5 5.91c.48 10.18.93 20.39 1.42 30.55a15.2 15.2 0 0 1-.15 3.81m-7.85-32.54a10.44 10.44 0 0 0-.15-1.37 2.29 2.29 0 0 0-2.75-1.66l-3.83.23q1.08 17.29 2.23 34.69l4.2-.28c1.43 0 2-.5 1.88-2.65l-1.68-29.07m66 36.76a11 11 0 0 1-4.18.58 9 9 0 0 1-6.84-3 10.21 10.21 0 0 1-1.92-7.35c0-3 0-4.56.17-7.51l5.93.15c-.12 3.35-.17 5-.27 8.41 0 2.2.27 3.18 1.22 3.88a3.19 3.19 0 0 0 1.88.65c3.08 0 3.18-3.21 3.25-5.28a12.82 12.82 0 0 0-2-8.09c-1.72-3-3.75-5.9-5.6-8.81a20 20 0 0 1-3.54-10.8 9.67 9.67 0 0 1 4.73-8.81 12.37 12.37 0 0 1 5.78-1 7.73 7.73 0 0 1 7.84 4.78 9.08 9.08 0 0 1 .3 3.44c-.17 3.22-.25 4.85-.42 8.1l-6-.3c0-3.22.2-4.85.35-8.13 0-.5.28-3.1-2.5-3.2-3.16-.14-3.29 2.53-3.39 4.53a16.1 16.1 0 0 0 3 9.29c.88 1.32 1.78 2.77 2.71 4.13s1.42 2 2 3.07a20.48 20.48 0 0 1 3.3 11.34c-.2 4-1.83 8.46-5.75 10m28.22-3.23a9.68 9.68 0 0 1-10 4.58 13.16 13.16 0 0 1-3.92-.85 8.69 8.69 0 0 1-4.78-5.91 14.26 14.26 0 0 1-.2-4.83c.42-7.51.87-15.27 1.3-22.87 0-4 .82-8.34 4.55-10.59a11.55 11.55 0 0 1 7.07-1.53 10.91 10.91 0 0 1 6.44 2.31 7.6 7.6 0 0 1 2.05 2.65 19 19 0 0 1 .65 10c-.63 7.28-1.28 14.54-1.9 21.8a15.07 15.07 0 0 1-1.26 5.23m-3.27-29.45a10.72 10.72 0 0 0-.35-5.7 3.47 3.47 0 0 0-3-1.61 5.16 5.16 0 0 0-2.5.51c-1.8.92-1.85 2.8-2.08 6.25-.55 8.16-1.07 16.37-1.62 24.55-.15 2.5 0 4.81 3.32 5 4.06.27 4.13-3.23 4.33-6l1.81-23.1m20.31 36.16q-1.93-17.2-4.12-34.41-1.42 16.88-2.77 33.66l-5.81-.55q2.06-22.9 4.24-45.77l7.16.7q2.22 16 4.23 32l3.3-31.15 6.28.75q-2.8 22.87-5.63 45.57c-2.75-.35-4.13-.52-6.88-.83m27.68 4.61a11.15 11.15 0 0 1-4.23 0 8.83 8.83 0 0 1-6.46-3.73 10 10 0 0 1-1.11-7.48c.43-3 .63-4.53 1.06-7.5 2.35.3 3.52.47 5.88.82l-1.25 8.31c-.33 2.18 0 3.2.77 4a3.43 3.43 0 0 0 1.8.85c3.06.43 3.53-2.8 3.86-4.85a13 13 0 0 0-1.08-8.28c-1.35-3.13-3-6.11-4.58-9.31a20.12 20.12 0 0 1-2.23-11.24 9.72 9.72 0 0 1 5.77-8.08 12.46 12.46 0 0 1 5.88-.38 7.68 7.68 0 0 1 7.23 5.63 9 9 0 0 1 0 3.51c-.55 3.2-.82 4.8-1.35 8l-5.9-1c.5-3.2.75-4.8 1.27-8 0-.53.63-3.08-2.13-3.5-3.2-.48-3.62 2.05-3.95 4.15a16.13 16.13 0 0 0 1.9 9.58c.7 1.41 1.43 3 2.2 4.43a32.53 32.53 0 0 1 1.63 3.29 20.52 20.52 0 0 1 1.92 11.62c-.65 3.87-2.77 8.2-6.85 9.23M70.87 63.38l-1.8-45.85 16.51-.7.3 5.92-10 .23.38 13.49c3.48-.13 5.21-.15 8.68-.23v5.73c-3.42 0-5.13 0-8.53.2l.45 15.24c3.75-.12 5.63-.17 9.36-.22v5.78c-5.23.13-10.44.25-15.67.45m33.83-22.67c3.78-.55 4.13-5 4.13-8.21V21.75a6.28 6.28 0 0 0-1.63-4.1 4.37 4.37 0 0 0-3.3-1.32H91.07a10.47 10.47 0 0 0 7.2 3.35c2.31.2 2.31 1.55 2.31 2 1.07 0 2.22 0 2.22 3v6.3c0 4.11-.6 4.88-3.53 4.88H96.4V21.03a10.06 10.06 0 0 1-6.69-3.8c.15 15.31.3 30.23.48 45.55h6.26V41.5h2.13c1.75 7.11 3.5 14.19 5.18 21.33h6.38c-1.78-7.36-3.56-14.74-5.51-22.08m78.81-5.38a2.87 2.87 0 0 1 .15-1.1c2.27-1.18 2.5-3.2 2.67-5.4l-2.17-.28c.32-2.5.5-3.88.82-6.46l4.43.58-.76 5.35a7.5 7.5 0 0 1-5.15 7.31m-3.85 41.09-15.36-.55-13.92-.52h-.25v-.25a8.8 8.8 0 0 0-2.5-3.71c-5.63-3.85-13-4.2-44.8-4.2s-34.41.23-41 3.38a7.28 7.28 0 0 0-3.37 4.48v.32h-.32c-1.51 0-7.74.33-14.32.55l-14.29.53v-.85l14.27-.53c6.2-.22 12.08-.42 14-.52a8.28 8.28 0 0 1 3.56-4.73c6.81-3.23 9.51-3.46 41.42-3.46s39.52.35 45.37 4.35a9.24 9.24 0 0 1 2.51 3.81l13.59.5 15.34.55Z" fill="#fff"/><path d="M214.99 22.28a3.25 3.25 0 0 1-3.32 3.18 3.25 3.25 0 0 1-3.18-3.33 3.26 3.26 0 0 1 3.25-3.18 3.3 3.3 0 0 1 3.25 3.33m-5.85 0a2.61 2.61 0 0 0 2.61 2.62 2.62 2.62 0 0 0 2.62-2.62 2.61 2.61 0 0 0-2.62-2.61 2.61 2.61 0 0 0-2.61 2.61m3.28 1.78h.85l-.45-.73c-.35-.62-.45-.7-.73-.82a1 1 0 0 0 1.06-.94 1 1 0 0 0-.93-1.06.88.88 0 0 0-.28 0h-1.62v3.53h.7v-1.51c.32 0 .42 0 .57.18a3.34 3.34 0 0 1 .48.7Zm-.73-2c.48 0 .63-.25.63-.5s-.23-.48-.7-.48h-.65v1Z" fill="#fff" fill-rule="evenodd"/><path d="M80.43 4.64a4.49 4.49 0 0 1-1.55 3.53 6.2 6.2 0 0 1-4.16 1.35 6.36 6.36 0 0 1-3.95-1.2 4.22 4.22 0 0 1-1.8-3.57 4.23 4.23 0 0 1 1.82-3.52 6.35 6.35 0 0 1 4-1.23 6.17 6.17 0 0 1 4.88 2.18l-1.4.67a4.69 4.69 0 0 0-3.58-1.5 4.81 4.81 0 0 0-2.87.85 3 3 0 0 0-1.3 2.55 3 3 0 0 0 1.15 2.51 4.72 4.72 0 0 0 3.05 1 3.7 3.7 0 0 0 3.86-2.42H74.4V4.51h6Zm14.76 4.63h-1.72l-2.5-3.43h-4.53v3.43h-1.51v-9h7.09a3.16 3.16 0 0 1 2.22.77 2.68 2.68 0 0 1 .8 2.05 2.48 2.48 0 0 1-.65 1.83 2.68 2.68 0 0 1-1.7.83Zm-3.4-4.76c1.15 0 1.73-.47 1.73-1.4s-.63-1.47-1.85-1.47h-5.23v2.87Zm17.72 1.86a2.65 2.65 0 0 1-1.35 2.27 6.69 6.69 0 0 1-3.71.9 6.66 6.66 0 0 1-3.72-.9 2.61 2.61 0 0 1-1.38-2.27V.29h1.5v5.73a1.79 1.79 0 0 0 .9 1.6 5.27 5.27 0 0 0 2.7.55 5 5 0 0 0 2.66-.65 1.76 1.76 0 0 0 .92-1.6V.29h1.48Zm12-6.08a3 3 0 0 1 2.17.77 2.52 2.52 0 0 1 .81 2 2.53 2.53 0 0 1-.83 2.05 3.67 3.67 0 0 1-2.5.7h-5.24v3.43h-1.48v-9Zm-.25 4.22c1.12 0 1.7-.47 1.7-1.4s-.6-1.47-1.8-1.47h-5.24v2.87Zm18 .25a4.23 4.23 0 0 1-1.81 3.56 6.35 6.35 0 0 1-3.87 1.2 6.4 6.4 0 0 1-4-1.2 4.22 4.22 0 0 1-1.85-3.57 4.2 4.2 0 0 1 1.85-3.51 6.93 6.93 0 0 1 7.88 0 4.26 4.26 0 0 1 1.81 3.51Zm-1.53 0a3 3 0 0 0-1.33-2.5 4.78 4.78 0 0 0-2.88-.9 4.61 4.61 0 0 0-3 1 2.9 2.9 0 0 0-1.17 2.5 3 3 0 0 0 1.15 2.5 4.83 4.83 0 0 0 3.07.93 4.74 4.74 0 0 0 3.01-.97 3.09 3.09 0 0 0 1.16-2.57Z" fill="#fff"/><g style="isolation:isolate" fill="#fff"><path d="M85.91 84.35V73.53h4.57v1.46h-3v3.18h2.65v1.46h-2.69v3.17h3v1.55ZM96.43 76.65H94.9v-.35a1.63 1.63 0 0 0-.25-.92.9.9 0 0 0-.83-.39 1 1 0 0 0-.51.12 1.05 1.05 0 0 0-.32.31 1.27 1.27 0 0 0-.16.45 2.87 2.87 0 0 0-.05.52v.53a1.13 1.13 0 0 0 .12.38.79.79 0 0 0 .26.29 2.25 2.25 0 0 0 .47.24l1.18.47a3 3 0 0 1 .82.47 2 2 0 0 1 .5.61 3 3 0 0 1 .22.83 8.32 8.32 0 0 1 .06 1.06 5.6 5.6 0 0 1-.13 1.26 2.69 2.69 0 0 1-.44 1 2.17 2.17 0 0 1-.82.67 2.93 2.93 0 0 1-1.25.24 2.57 2.57 0 0 1-1-.2 2.48 2.48 0 0 1-.83-.54 2.88 2.88 0 0 1-.55-.82 2.53 2.53 0 0 1-.2-1v-.57h1.53v.44a1.31 1.31 0 0 0 .25.77 1 1 0 0 0 .84.34 1.45 1.45 0 0 0 .61-.11 1 1 0 0 0 .34-.33 1.27 1.27 0 0 0 .14-.51v-.66a6.67 6.67 0 0 0 0-.7 1.22 1.22 0 0 0-.12-.44.81.81 0 0 0-.28-.27 3.25 3.25 0 0 0-.46-.23l-1.09-.46a2.43 2.43 0 0 1-1.37-1.05 3.87 3.87 0 0 1-.33-1.7 4 4 0 0 1 .16-1.15 2.65 2.65 0 0 1 .5-.94 2.38 2.38 0 0 1 .8-.63 2.66 2.66 0 0 1 1.17-.24 2.36 2.36 0 0 1 1 .22 2.49 2.49 0 0 1 .82.56 2.35 2.35 0 0 1 .69 1.67ZM98.58 84.35v-9.36h-1.77v-1.46h5.08v1.46h-1.77v9.36ZM101.1 84.35V82.8h1.53v1.55ZM108.39 84.35v-9.18l-1.53 1.14v-1.64l1.53-1.14h1.53v10.82ZM112.72 84.35l1.75-4.54a.79.79 0 0 1-.24.1 2.22 2.22 0 0 1-.41 0 1.49 1.49 0 0 1-.75-.19 1.47 1.47 0 0 1-.54-.51 1.1 1.1 0 0 1-.17-.32 2.23 2.23 0 0 1-.09-.45 5.54 5.54 0 0 1-.09-.69V75.82a4.16 4.16 0 0 1 .06-.58 1.37 1.37 0 0 1 .1-.4 2.23 2.23 0 0 1 .17-.35 2.07 2.07 0 0 1 .81-.77 2.23 2.23 0 0 1 1.13-.28 2.2 2.2 0 0 1 1.93 1.05 3.91 3.91 0 0 1 .18.35 1.73 1.73 0 0 1 .12.4v2.84c0 .16-.07.3-.1.43s-.08.26-.13.4l-2 5.44Zm1-6.58a.75.75 0 1 0 1.5 0v-2.02a.72.72 0 0 0-.22-.56.75.75 0 0 0-1.06 0 .72.72 0 0 0-.22.56ZM121.77 73.53l-1.74 4.55a.55.55 0 0 1 .23-.1 1.66 1.66 0 0 1 .42 0 1.5 1.5 0 0 1 .75.2 1.53 1.53 0 0 1 .54.5 1.73 1.73 0 0 1 .17.33 2.66 2.66 0 0 1 .1.44c0 .19 0 .42.05.69s0 .63 0 1.06v.87c0 .22 0 .42-.05.57a2.37 2.37 0 0 1-.11.41 3.7 3.7 0 0 1-.17.35 2.09 2.09 0 0 1-.81.78 2.37 2.37 0 0 1-1.14.27 2.2 2.2 0 0 1-1.92-1 2.45 2.45 0 0 1-.19-.35 1.75 1.75 0 0 1-.1-.41 3.84 3.84 0 0 1-.06-.57v-1.7c0-.22 0-.41.05-.57a2.26 2.26 0 0 1 .09-.41c0-.13.09-.27.13-.41l2-5.44Zm-1 6.58a.76.76 0 1 0-1.51 0v2a.76.76 0 1 0 1.51 0ZM125.17 78.09a1.86 1.86 0 0 0 1-.17c.17-.11.26-.37.26-.77v-1.4a.77.77 0 0 0-.2-.54.71.71 0 0 0-.55-.22.65.65 0 0 0-.58.26.86.86 0 0 0-.17.5v.88h-1.58v-.88a2.26 2.26 0 0 1 .18-.9 2.21 2.21 0 0 1 .5-.73 2.48 2.48 0 0 1 .74-.48 2.11 2.11 0 0 1 .9-.19 2 2 0 0 1 1 .25 2.48 2.48 0 0 1 .63.51 2.78 2.78 0 0 1 .26.37 1.62 1.62 0 0 1 .19.44 6.16 6.16 0 0 1 .13 1.49v.91a1.75 1.75 0 0 1-.11.57 1.13 1.13 0 0 1-.29.41 3.07 3.07 0 0 1-.52.37 3.11 3.11 0 0 1 .55.42 1.43 1.43 0 0 1 .27.46 2 2 0 0 1 .11.65v1.88a2.76 2.76 0 0 1-.07.57 1.68 1.68 0 0 1-.12.41 2 2 0 0 1-.19.35 2.47 2.47 0 0 1-.73.71 2.13 2.13 0 0 1-1.17.28 2.66 2.66 0 0 1-.76-.12 2 2 0 0 1-.74-.4 2.21 2.21 0 0 1-.55-.71 2.47 2.47 0 0 1-.22-1.08v-.94h1.54v.81a.92.92 0 0 0 .2.6.77.77 0 0 0 1.1 0 1 1 0 0 0 .2-.63v-1.55a1.08 1.08 0 0 0-.24-.84.66.66 0 0 0-.37-.15 4.93 4.93 0 0 0-.61 0Z"/></g></svg>